<?xml version="1.0" encoding="utf-8"?>
<!-- Generator: Adobe Illustrator 23.1.1, SVG Export Plug-In . SVG Version: 6.00 Build 0)  -->
<svg version="1.1" id="Layer_1" xmlns="http://www.w3.org/2000/svg" xmlns:xlink="http://www.w3.org/1999/xlink" x="0px" y="0px"
	 viewBox="0 0 300 300" style="enable-background:new 0 0 300 300;" xml:space="preserve">
<style type="text/css">
	.st0{fill:#FFFFFF;}
</style>
<g>
	<g>
		<path class="st0" d="M219.09,115.7c6.62,9.85,13.19,19.73,19.78,29.62c7.65,11.5,15.3,22.98,22.94,34.5
			c2.29,3.46,4.6,6.92,6.89,10.38c0.42,0.63,0.85,1.26,1.26,1.9c0.18,0.3,0.34,0.6,0.51,0.91c0.3,0.57,0.58,1.15,0.87,1.74
			c0.13,0.28,0.3,0.58,0.4,0.88c-0.21-0.64-0.4-1.02-0.1-0.13c0.43,1.27,0.85,2.53,1.18,3.83c0.15,0.61,0.28,1.23,0.42,1.86
			c0.04,0.27,0.1,0.52,0.15,0.79c0.22,1.29,0.03,0.4-0.01-0.36c0.12,2.16,0.36,4.25,0.25,6.42c-0.03,0.51-0.06,1-0.1,1.51
			c-0.01,0.25-0.04,0.49-0.07,0.75c-0.07,0.78-0.46,0.78,0.1-0.7c-0.36,0.94-0.37,2.16-0.61,3.14c-0.22,0.96-0.49,1.89-0.81,2.81
			c-0.15,0.46-0.31,0.93-0.48,1.38c-0.09,0.22-0.18,0.45-0.25,0.67c-0.39,1.06,0.07-0.4,0.27-0.63c-0.6,0.7-0.94,1.99-1.39,2.81
			c-0.51,0.91-1.05,1.81-1.62,2.68c-0.27,0.4-0.54,0.79-0.82,1.2c-0.13,0.19-0.3,0.39-0.43,0.58c-0.48,0.72,0.58-0.73,0.55-0.7
			c-0.82,0.63-1.5,1.8-2.22,2.55c-0.66,0.7-1.36,1.38-2.08,2.04c-0.36,0.33-0.72,0.64-1.09,0.96c-0.18,0.15-0.39,0.3-0.57,0.46
			c-0.75,0.7,1.36-0.97,0.52-0.39c-1.75,1.21-3.47,2.41-5.38,3.4c-0.43,0.22-0.88,0.45-1.32,0.66c-0.28,0.13-1.84,0.81-0.6,0.3
			c1.32-0.54-0.6,0.22-0.87,0.33c-0.55,0.19-1.09,0.39-1.66,0.57c-2.02,0.64-4.13,0.87-6.17,1.45c-0.06,0.01,1.84-0.21,0.91-0.12
			c-0.34,0.03-0.69,0.07-1.03,0.1c-0.52,0.04-1.03,0.09-1.56,0.12c-0.37,0.01-0.75,0.03-1.12,0.04c-0.85,0.03-1.71,0.04-2.58,0.06
			c-2.99,0.04-5.99,0.07-8.98,0.09c-9.84,0.06-19.67,0.09-29.51,0.1c-12.76,0.03-25.51,0.03-38.27,0.04c-13,0-26.01,0-39,0
			c-10.62,0-21.22-0.01-31.83-0.03c-5.43,0-10.87-0.09-16.29-0.01c-0.24,0-0.49,0-0.73,0c2.74,2.74,5.49,5.49,8.23,8.23
			c-0.03-9.78-0.13-19.57-0.06-29.35c0.01-1.38,0.06-2.74,0.15-4.1c0.04-0.7,0.1-1.41,0.18-2.1c0.03-0.34,0.07-0.69,0.12-1.03
			c0.1-1.05-0.36,2.17-0.04,0.43c0.43-2.52,0.96-4.99,1.75-7.43c0.19-0.57,0.39-1.14,0.6-1.69c0.1-0.27,0.25-0.55,0.33-0.82
			c-0.01,0.07-0.88,1.95-0.31,0.76c0.49-1.03,0.97-2.05,1.54-3.04c0.54-0.96,1.14-1.89,1.78-2.77c0.15-0.22,0.34-0.43,0.48-0.66
			c-0.03,0.04-1.36,1.66-0.54,0.72c0.39-0.45,0.78-0.91,1.18-1.35c0.67-0.72,1.39-1.42,2.14-2.07c0.19-0.18,0.4-0.34,0.6-0.51
			c0.93-0.82-0.7,0.52-0.73,0.55c0.49-0.33,0.96-0.7,1.45-1.03c0.82-0.55,1.69-1.06,2.58-1.54c0.48-0.25,0.96-0.49,1.45-0.72
			c1.92-0.9-1.69,0.63,0.3-0.12c2.13-0.81,4.34-1.39,6.59-1.8c0.73-0.13,2.65-0.18,0.03-0.04c0.52-0.03,1.06-0.12,1.59-0.16
			c1.33-0.12,2.68-0.18,4.01-0.19c7.34-0.07,14.69,0,22.04,0c18.27,0,36.52,0,54.78,0c5.38,0,10.77,0,16.14,0
			c2.02,0,3.95-0.07,5.97-0.52c7.02-1.56,12.71-7.59,14.69-14.36c2.2-7.49,0.1-16.36-5.26-22.02c-3.58-3.77-8.68-5.78-13.83-5.84
			c-3.79-0.04-7.58,0-11.35,0c-14.96,0-29.9,0-44.86,0c-4.15,0-8.31,0.06-12.47,0c-0.81-0.01-1.63-0.09-2.44-0.16
			c-1.42-0.13,0.57,0.04,0.69,0.1c-0.22-0.1-0.7-0.12-0.97-0.16c-0.64-0.12-1.27-0.25-1.9-0.4c-1.3-0.31-2.53-0.78-3.8-1.2
			c-0.99-0.31,1.63,0.76,0.7,0.3c-0.27-0.13-0.55-0.25-0.82-0.37c-0.46-0.22-0.93-0.46-1.39-0.72c-0.51-0.28-1.02-0.58-1.51-0.91
			c-0.34-0.22-2.11-1.53-0.96-0.61c1.21,0.94-0.45-0.4-0.67-0.6c-0.43-0.39-0.85-0.79-1.26-1.2c-0.36-0.36-0.7-0.73-1.03-1.11
			c-0.19-0.22-0.37-0.45-0.57-0.66c-1.06-1.23,1.12,1.63,0.22,0.28c-0.61-0.93-1.23-1.83-1.77-2.8c-0.28-0.52-0.57-1.06-0.82-1.6
			c-0.13-0.27-0.24-0.55-0.37-0.82c-0.42-0.85,0.75,2.02,0.22,0.48c-0.84-2.44-1.48-4.85-1.93-7.4c-0.24-1.39,0.12,0.57,0.09,0.7
			c0.04-0.24-0.09-0.79-0.1-1c-0.06-0.69-0.1-1.38-0.13-2.05c-0.06-1.45-0.06-2.89,0.01-4.34c0.01-0.22,0.27-2.16,0.19-2.2
			c0.15,0.07-0.3,1.84-0.07,0.57c0.06-0.36,0.12-0.7,0.18-1.06c0.28-1.48,0.66-2.93,1.11-4.37c0.18-0.58,0.39-1.15,0.6-1.72
			c0.06-0.15,0.39-0.76,0.37-0.96c0.01,0.96-0.63,1.41-0.21,0.55c0.63-1.3,1.29-2.56,2.05-3.79c0.36-0.57,0.73-1.11,1.11-1.66
			c1.12-1.63-0.87,0.96,0.06-0.1c0.96-1.11,1.92-2.19,2.99-3.17c0.42-0.37,0.85-0.72,1.27-1.09c0.76-0.7-1.41,0.99-0.54,0.4
			c0.27-0.18,0.51-0.37,0.78-0.55c1.09-0.76,2.26-1.44,3.46-2.02c0.24-0.12,0.66-0.24,0.85-0.39c-0.1,0.09-1.93,0.73-0.67,0.3
			c0.52-0.18,1.03-0.37,1.56-0.54c0.6-0.18,1.2-0.34,1.81-0.48c0.3-0.07,0.61-0.12,0.93-0.19c1.36-0.3,0.03,0.09-0.55,0.04
			c1.45,0.1,3.1-0.16,4.6-0.16c2.01,0,4.03,0,6.03,0c6.84,0,13.7,0,20.54,0c13.34,0,26.67,0,40.01,0c0.81,0,1.62,0,2.41,0
			c6.08,0,10.48-7.05,7.11-12.4c-5.38-8.52-10.78-17.01-16.2-25.5c-4.7-7.37-9.43-14.72-14.18-22.05c-2.28-3.5-4.55-7.01-6.84-10.5
			c-1.87-2.86-3.86-5.61-6.45-7.88c-6.98-6.08-15.83-9.21-25.09-8.14c-9.54,1.09-17.83,6.29-23.3,14.13
			c-6.59,9.46-12.68,19.31-19.01,28.94c-15.98,24.29-31.94,48.57-47.9,72.86c-12.02,18.28-24.05,36.56-36.05,54.86
			c-3.79,5.75-7.17,10.93-8.91,17.86c-4.85,19.4,3.64,39.5,20.38,50.19c3.77,2.41,8,4.22,12.29,5.49c4.13,1.23,9.16-1.48,10.14-5.75
			c1-4.43-1.33-8.82-5.75-10.14c-1-0.3-1.99-0.61-2.98-0.99c-0.16-0.06-0.33-0.12-0.48-0.18c-0.82-0.33-0.64-0.25,0.54,0.24
			c-0.19-0.25-1.11-0.51-1.41-0.64c-1.84-0.9-3.61-1.93-5.3-3.1c-0.28-0.19-0.55-0.39-0.82-0.58c-1.48-1.05,1.44,1.23,0.06,0.04
			c-0.76-0.66-1.54-1.3-2.28-2.01c-0.61-0.58-1.2-1.18-1.77-1.8c-0.34-0.37-0.67-0.75-1-1.12c-0.22-0.25-0.43-0.51-0.64-0.78
			c-0.54-0.67-0.42-0.52,0.36,0.48c-0.12-0.61-1.08-1.5-1.44-2.07c-0.55-0.84-1.06-1.71-1.54-2.59c-0.4-0.73-0.75-1.5-1.12-2.26
			c-0.79-1.63,0.66,1.81,0.04,0.1c-0.22-0.63-0.48-1.26-0.69-1.9c-0.58-1.8-0.99-3.61-1.35-5.46c-0.36-1.83,0.16,1.99,0.01,0.13
			c-0.04-0.52-0.1-1.03-0.13-1.56c-0.07-1.06-0.09-2.11-0.07-3.17c0.03-1.08,0.12-2.16,0.21-3.22c0.13-1.6-0.03,0.57-0.07,0.55
			c0,0,0.27-1.53,0.28-1.65c0.25-1.29,0.57-2.58,0.96-3.82c0.19-0.63,0.43-1.26,0.64-1.89c0.52-1.65-0.64,1.24,0.16-0.45
			c0.54-1.11,1.05-2.22,1.71-3.26c0.88-1.41,1.83-2.78,2.74-4.18c10.8-16.45,21.62-32.89,32.43-49.33
			c15.57-23.7,31.16-47.39,46.74-71.07c6.71-10.21,13.43-20.41,20.14-30.62c1.36-2.08,2.75-4.15,4.12-6.24
			c0.28-0.45,0.57-0.91,0.87-1.35c0.16-0.24,0.36-0.46,0.51-0.72c-1.21,2.04-1.06,1.32-0.57,0.76c1.11-1.26,2.28-2.41,3.55-3.5
			c0.58-0.51,0.72-0.1-0.6,0.45c0.39-0.16,0.79-0.57,1.15-0.81c0.82-0.54,1.66-1.02,2.55-1.45c0.1-0.06,0.79-0.28,0.91-0.43
			c-0.34,0.15-0.67,0.28-1.02,0.43c0.33-0.12,0.64-0.24,0.99-0.36c0.51-0.16,1.02-0.31,1.53-0.45c0.34-0.09,0.7-0.16,1.06-0.24
			c0.9-0.15,0.72-0.13-0.54,0.04c0.21-0.39,3.55-0.13,4.09-0.13c0.25,0,2.26-0.12,2.37,0.13c-0.36-0.04-0.72-0.09-1.09-0.13
			c0.36,0.06,0.72,0.13,1.08,0.21c0.69,0.15,1.38,0.34,2.05,0.57c0.6,0.19,1.92,1-0.03-0.09c0.28,0.16,0.61,0.28,0.91,0.43
			c0.88,0.43,1.72,0.93,2.55,1.45c0.36,0.24,0.76,0.63,1.15,0.81c-1.65-0.7-0.97-0.78-0.25-0.18c0.64,0.54,1.26,1.11,1.84,1.71
			c0.52,0.52,0.97,1.11,1.48,1.65c0.79,0.85-0.69-0.91-0.69-0.9c0.13,0.25,0.34,0.48,0.51,0.72c0.93,1.38,1.81,2.8,2.72,4.18
			c4.66,7.11,9.27,14.27,13.86,21.43c6.89,10.74,13.73,21.49,20.54,32.27c0.39,0.61,0.78,1.23,1.17,1.84
			c2.37-4.13,4.75-8.26,7.11-12.4c-10.36,0-20.72,0-31.08,0c-12.77,0-25.56,0-38.33,0c-9.03,0-17.13,2.98-23.99,8.88
			c-9.82,8.44-14.6,22.08-13.95,34.81c0.64,12.5,5.67,24.06,15.96,31.52c6.39,4.63,14.55,6.65,22.37,6.65c13.07,0,26.16,0,39.23,0
			c6.96,0,13.92,0,20.87,0c1.99,0,3.97,0,5.96,0c0.43,0,0.85,0,1.29,0c0.06,0,0.12,0,0.16,0c0.25,0,0.52,0.03,0.79,0.03
			c1.24,0.01-0.94-0.1-1.02-0.13c0.45,0.22,1.23,0.34,1.74,0.48c0.94,0.25-1.66-0.88-0.85-0.34c0.22,0.15,0.48,0.27,0.72,0.4
			c1.53,0.81-1.23-1.27,0.03-0.03c0.28,0.28,0.72,0.91,1.06,1.11c-1.02-0.57-0.91-1.35-0.46-0.57c0.24,0.4,0.48,0.82,0.72,1.23
			c0.58,0.96-0.49-0.09-0.22-0.6c-0.03,0.06,0.34,1.02,0.34,0.99c0.18,0.6,0.18,1.63,0.49,2.16c-0.04-0.07-0.12-1.65-0.12-0.72
			c0,0.4,0.06,0.81,0.06,1.21c0,0.37-0.03,0.75-0.03,1.12c0.03,1.03,0.4-1.77,0.04-0.31c-0.09,0.36-0.69,1.71-0.58,1.98
			c-0.25-0.67,0.79-1.51,0.21-0.6c-0.16,0.25-0.34,0.57-0.49,0.85c-0.36,0.7-0.73,0.31,0.45-0.49c-0.19,0.13-0.46,0.55-0.61,0.72
			c-0.21,0.22-0.45,0.43-0.66,0.66c-0.94,1.02,1.23-0.75,0.42-0.28c-0.49,0.28-1.06,0.6-1.53,0.93c-0.82,0.57,1.74-0.51,0.78-0.3
			c-0.21,0.04-0.4,0.15-0.61,0.21c-0.27,0.09-0.55,0.13-0.81,0.21c-1.18,0.37,0.81-0.13,0.96-0.1c-0.21-0.04-0.6,0.03-0.84,0.03
			c-3.5,0.07-7.01,0-10.51,0c-17.61,0-35.21,0-52.82,0c-8.35,0-16.72,0-25.08,0c-9.81,0-19.3,0.52-28.21,5.12
			c-9.61,4.96-16.19,14.15-19.28,24.34c-1.77,5.78-2.44,11.99-2.47,18.01c-0.03,6.51,0.01,13.04,0.03,19.57
			c0.01,3.16,0.01,6.33,0.03,9.49c0.01,4.46,3.76,8.23,8.23,8.23c3.88,0,7.77,0.01,11.65,0.01c9.84,0.01,19.67,0.01,29.53,0.03
			c12.89,0.01,25.8,0.01,38.69,0.01c13.19,0,26.4-0.01,39.59-0.03c10.74-0.01,21.49-0.04,32.22-0.1c6.11-0.03,12.37,0.25,18.45-0.36
			c10.44-1.05,19.94-5.02,27.89-11.89c7.1-6.14,12.38-14.87,14.4-24.03c2.38-10.78,1.03-22.98-4.75-32.53
			c-1.14-1.89-2.46-3.71-3.67-5.55c-6.98-10.51-13.97-21.02-20.96-31.52c-7.55-11.33-15.08-22.67-22.65-33.97
			c-1.2-1.8-2.41-3.59-3.61-5.39c-2.4-3.56-7.37-5.46-11.27-2.95C218.49,106.73,216.53,111.88,219.09,115.7L219.09,115.7z"/>
	</g>
	<g>
		<path class="st0" d="M32.73,277.64v4.93h6.74v2.9h-6.74v5.12h7.55v3.04H28.93V274.6h11.35v3.02h-7.55V277.64z"/>
		<path class="st0" d="M51.19,290.74h6.39v2.9H47.4v-19.03h3.8v16.13H51.19z"/>
		<path class="st0" d="M85.19,274.84v18.81h-3.77v-13.13l-4.82,13.13H73.3l-4.82-13.07v13.07h-3.8v-18.81h4.61l5.72,14.15l5.6-14.15
			H85.19z"/>
		<path class="st0" d="M106.18,275.59c1.45,0.82,2.59,1.98,3.43,3.46c0.84,1.48,1.26,3.16,1.26,5.03c0,1.87-0.42,3.55-1.26,5.05
			c-0.84,1.5-1.98,2.65-3.43,3.47s-3.05,1.24-4.84,1.24s-3.4-0.42-4.84-1.24c-1.44-0.82-2.59-1.99-3.43-3.47
			c-0.84-1.5-1.26-3.17-1.26-5.05c0-1.87,0.42-3.55,1.26-5.03c0.84-1.48,1.98-2.64,3.43-3.46s3.05-1.24,4.84-1.24
			C103.11,274.34,104.73,274.76,106.18,275.59z M98.4,278.61c-0.84,0.51-1.51,1.23-1.98,2.17c-0.48,0.94-0.72,2.05-0.72,3.31
			s0.24,2.35,0.72,3.31c0.48,0.94,1.14,1.66,1.98,2.17c0.84,0.51,1.83,0.75,2.93,0.75c1.11,0,2.1-0.25,2.93-0.75
			c0.84-0.51,1.5-1.23,1.98-2.17c0.48-0.94,0.72-2.05,0.72-3.31s-0.24-2.37-0.72-3.31c-0.48-0.94-1.14-1.66-1.98-2.17
			c-0.84-0.51-1.83-0.75-2.93-0.75C100.22,277.85,99.25,278.1,98.4,278.61z"/>
		<path class="st0" d="M120.74,290.74h6.39v2.9h-10.18v-19.03h3.8v16.13H120.74z"/>
		<path class="st0" d="M137.5,277.64v4.93h6.74v2.9h-6.74v5.12h7.55v3.04H133.7V274.6h11.35v3.02h-7.55V277.64z"/>
		<path class="st0" d="M164.83,289.82h-7.62l-1.35,3.83h-4.01l7.01-18.81h4.34l6.98,18.81h-4.01L164.83,289.82z M163.81,286.93
			l-2.8-8.03l-2.8,8.03H163.81z"/>
		<path class="st0" d="M185.91,293.64l-4.45-7.41h-1.68v7.41h-3.8v-19.03h7.25c2.22,0,3.89,0.54,5.06,1.62
			c1.15,1.08,1.74,2.5,1.74,4.25c0,1.44-0.4,2.64-1.2,3.61c-0.79,0.97-1.95,1.62-3.46,1.95l4.75,7.61H185.91z M179.79,283.61h3.13
			c2.17,0,3.26-0.96,3.26-2.89c0-0.91-0.27-1.63-0.79-2.14c-0.52-0.51-1.35-0.76-2.47-0.76h-3.13V283.61z"/>
		<path class="st0" d="M212.49,293.64h-3.8l-8.52-12.94v12.94h-3.8v-19.03h3.8l8.52,13.04v-13.04h3.8V293.64z"/>
		<path class="st0" d="M224.04,274.61v19.03h-3.8v-19.03H224.04z"/>
		<path class="st0" d="M247.39,293.64h-3.8l-8.52-12.94v12.94h-3.8v-19.03h3.8l8.52,13.04v-13.04h3.8V293.64z"/>
		<path class="st0" d="M268.65,276.14c1.53,1.14,2.5,2.68,2.93,4.63h-3.98c-0.37-0.87-0.97-1.56-1.8-2.07
			c-0.82-0.51-1.78-0.76-2.9-0.76c-1.09,0-2.07,0.25-2.9,0.75c-0.84,0.51-1.5,1.23-1.96,2.16c-0.46,0.93-0.7,2.04-0.7,3.29
			c0,1.99,0.54,3.55,1.6,4.66c1.06,1.11,2.53,1.68,4.37,1.68c1.36,0,2.53-0.4,3.52-1.21c0.99-0.81,1.62-1.93,1.9-3.37h-6.44v-2.72
			h9.63v3.67c-0.27,1.26-0.79,2.41-1.57,3.47s-1.81,1.92-3.07,2.55c-1.27,0.64-2.72,0.96-4.36,0.96c-1.87,0-3.52-0.4-4.94-1.23
			c-1.42-0.82-2.53-1.96-3.31-3.43c-0.78-1.47-1.17-3.14-1.17-5.03s0.39-3.56,1.17-5.03c0.78-1.47,1.89-2.61,3.31-3.43
			c1.42-0.82,3.07-1.24,4.93-1.24C265.19,274.43,267.12,275,268.65,276.14z"/>
	</g>
</g>
</svg>
